<svg id="visual" viewBox="0 0 1920 1080" width="1920" height="1080" xmlns="http://www.w3.org/2000/svg" xmlns:xlink="http://www.w3.org/1999/xlink" version="1.1"><g stroke-width="1" stroke-linejoin="bevel"><path d="M1005.3 597.1L1003.3 457.9L913.7 464.9Z" fill="#2b294f" stroke="#2b294f"></path><path d="M913.7 464.9L837.7 600.1L1005.3 597.1Z" fill="#232346" stroke="#232346"></path><path d="M1005.3 597.1L1164.8 468.9L1003.3 457.9Z" fill="#423968" stroke="#423968"></path><path d="M856.7 762.4L997.3 758.4L1005.3 597.1Z" fill="#232346" stroke="#232346"></path><path d="M1005.3 597.1L1189.8 612.1L1164.8 468.9Z" fill="#27264b" stroke="#27264b"></path><path d="M1199.8 719.4L1189.8 612.1L1005.3 597.1Z" fill="#302c54" stroke="#302c54"></path><path d="M1164.8 468.9L999.3 275.6L1003.3 457.9Z" fill="#4b3f72" stroke="#4b3f72"></path><path d="M1003.3 457.9L999.3 275.6L913.7 464.9Z" fill="#1f2041" stroke="#1f2041"></path><path d="M913.7 464.9L696.2 445.9L837.7 600.1Z" fill="#342f59" stroke="#342f59"></path><path d="M837.7 600.1L856.7 762.4L1005.3 597.1Z" fill="#232346" stroke="#232346"></path><path d="M999.3 275.6L901.7 271.6L913.7 464.9Z" fill="#38325e" stroke="#38325e"></path><path d="M901.7 271.6L696.2 445.9L913.7 464.9Z" fill="#423968" stroke="#423968"></path><path d="M837.7 600.1L667.2 778.4L856.7 762.4Z" fill="#463c6d" stroke="#463c6d"></path><path d="M997.3 758.4L1199.8 719.4L1005.3 597.1Z" fill="#463c6d" stroke="#463c6d"></path><path d="M696.2 445.9L655.2 600.1L837.7 600.1Z" fill="#342f59" stroke="#342f59"></path><path d="M1373.4 518.9L1254.8 315.6L1164.8 468.9Z" fill="#423968" stroke="#423968"></path><path d="M1164.8 468.9L1254.8 315.6L999.3 275.6Z" fill="#232346" stroke="#232346"></path><path d="M1373.4 518.9L1164.8 468.9L1189.8 612.1Z" fill="#4b3f72" stroke="#4b3f72"></path><path d="M856.7 762.4L888.7 880.7L997.3 758.4Z" fill="#423968" stroke="#423968"></path><path d="M997.3 758.4L1017.3 913.7L1199.8 719.4Z" fill="#3d3563" stroke="#3d3563"></path><path d="M667.2 778.4L888.7 880.7L856.7 762.4Z" fill="#38325e" stroke="#38325e"></path><path d="M1004.3 114.3L833.7 187.3L901.7 271.6Z" fill="#463c6d" stroke="#463c6d"></path><path d="M901.7 271.6L653.2 265.6L696.2 445.9Z" fill="#302c54" stroke="#302c54"></path><path d="M1004.3 114.3L901.7 271.6L999.3 275.6Z" fill="#342f59" stroke="#342f59"></path><path d="M655.2 600.1L667.2 778.4L837.7 600.1Z" fill="#3d3563" stroke="#3d3563"></path><path d="M888.7 880.7L1017.3 913.7L997.3 758.4Z" fill="#1f2041" stroke="#1f2041"></path><path d="M696.2 445.9L568.6 608.1L655.2 600.1Z" fill="#3d3563" stroke="#3d3563"></path><path d="M655.2 600.1L568.6 608.1L667.2 778.4Z" fill="#1f2041" stroke="#1f2041"></path><path d="M467.6 484.9L568.6 608.1L696.2 445.9Z" fill="#38325e" stroke="#38325e"></path><path d="M833.7 187.3L653.2 265.6L901.7 271.6Z" fill="#2b294f" stroke="#2b294f"></path><path d="M1390.4 602.1L1373.4 518.9L1189.8 612.1Z" fill="#232346" stroke="#232346"></path><path d="M1180.8 150.3L1004.3 114.3L999.3 275.6Z" fill="#2b294f" stroke="#2b294f"></path><path d="M1381.4 783.4L1390.4 602.1L1199.8 719.4Z" fill="#38325e" stroke="#38325e"></path><path d="M1199.8 719.4L1390.4 602.1L1189.8 612.1Z" fill="#3d3563" stroke="#3d3563"></path><path d="M1442.4 211.3L1180.8 150.3L1254.8 315.6Z" fill="#3d3563" stroke="#3d3563"></path><path d="M1254.8 315.6L1180.8 150.3L999.3 275.6Z" fill="#2b294f" stroke="#2b294f"></path><path d="M1017.3 913.7L1202.8 928.7L1199.8 719.4Z" fill="#302c54" stroke="#302c54"></path><path d="M746.2 0L700.2 133.3L833.7 187.3Z" fill="#2b294f" stroke="#2b294f"></path><path d="M833.7 187.3L700.2 133.3L653.2 265.6Z" fill="#38325e" stroke="#38325e"></path><path d="M358.1 587.1L524.6 724.4L568.6 608.1Z" fill="#342f59" stroke="#342f59"></path><path d="M568.6 608.1L524.6 724.4L667.2 778.4Z" fill="#423968" stroke="#423968"></path><path d="M667.2 778.4L701.2 955.7L888.7 880.7Z" fill="#232346" stroke="#232346"></path><path d="M1202.8 928.7L1381.4 783.4L1199.8 719.4Z" fill="#2b294f" stroke="#2b294f"></path><path d="M487.6 306.6L696.2 445.9L653.2 265.6Z" fill="#232346" stroke="#232346"></path><path d="M487.6 306.6L467.6 484.9L696.2 445.9Z" fill="#2b294f" stroke="#2b294f"></path><path d="M1532.9 364.6L1407.4 297.6L1373.4 518.9Z" fill="#3d3563" stroke="#3d3563"></path><path d="M1373.4 518.9L1407.4 297.6L1254.8 315.6Z" fill="#38325e" stroke="#38325e"></path><path d="M1442.4 211.3L1407.4 297.6L1532.9 364.6Z" fill="#3d3563" stroke="#3d3563"></path><path d="M561.6 920.7L701.2 955.7L667.2 778.4Z" fill="#423968" stroke="#423968"></path><path d="M838.7 1080L1055.3 1080L1017.3 913.7Z" fill="#38325e" stroke="#38325e"></path><path d="M1017.3 913.7L1055.3 1080L1202.8 928.7Z" fill="#38325e" stroke="#38325e"></path><path d="M514.6 201.3L487.6 306.6L653.2 265.6Z" fill="#3d3563" stroke="#3d3563"></path><path d="M1180.8 150.3L995.3 0L1004.3 114.3Z" fill="#232346" stroke="#232346"></path><path d="M1004.3 114.3L860.7 0L833.7 187.3Z" fill="#232346" stroke="#232346"></path><path d="M1233.8 0L995.3 0L1180.8 150.3Z" fill="#232346" stroke="#232346"></path><path d="M995.3 0L860.7 0L1004.3 114.3Z" fill="#302c54" stroke="#302c54"></path><path d="M700.2 133.3L514.6 201.3L653.2 265.6Z" fill="#2b294f" stroke="#2b294f"></path><path d="M487.6 0L514.6 201.3L700.2 133.3Z" fill="#342f59" stroke="#342f59"></path><path d="M838.7 1080L1017.3 913.7L888.7 880.7Z" fill="#27264b" stroke="#27264b"></path><path d="M1202.8 928.7L1375.4 951.7L1381.4 783.4Z" fill="#423968" stroke="#423968"></path><path d="M524.6 724.4L561.6 920.7L667.2 778.4Z" fill="#342f59" stroke="#342f59"></path><path d="M701.2 955.7L838.7 1080L888.7 880.7Z" fill="#342f59" stroke="#342f59"></path><path d="M393.1 803.4L561.6 920.7L524.6 724.4Z" fill="#2b294f" stroke="#2b294f"></path><path d="M754.2 1080L838.7 1080L701.2 955.7Z" fill="#3d3563" stroke="#3d3563"></path><path d="M860.7 0L746.2 0L833.7 187.3Z" fill="#38325e" stroke="#38325e"></path><path d="M1538.9 604.1L1373.4 518.9L1390.4 602.1Z" fill="#1f2041" stroke="#1f2041"></path><path d="M1407.4 297.6L1442.4 211.3L1254.8 315.6Z" fill="#342f59" stroke="#342f59"></path><path d="M1570.9 731.4L1538.9 604.1L1390.4 602.1Z" fill="#342f59" stroke="#342f59"></path><path d="M558.6 1080L754.2 1080L701.2 955.7Z" fill="#463c6d" stroke="#463c6d"></path><path d="M1220.8 1080L1375.4 951.7L1202.8 928.7Z" fill="#1f2041" stroke="#1f2041"></path><path d="M1381.4 783.4L1570.9 731.4L1390.4 602.1Z" fill="#38325e" stroke="#38325e"></path><path d="M1550.9 429.9L1532.9 364.6L1373.4 518.9Z" fill="#4b3f72" stroke="#4b3f72"></path><path d="M1345.4 0L1233.8 0L1180.8 150.3Z" fill="#4b3f72" stroke="#4b3f72"></path><path d="M1538.9 604.1L1550.9 429.9L1373.4 518.9Z" fill="#232346" stroke="#232346"></path><path d="M321.1 453.9L358.1 587.1L467.6 484.9Z" fill="#38325e" stroke="#38325e"></path><path d="M467.6 484.9L358.1 587.1L568.6 608.1Z" fill="#27264b" stroke="#27264b"></path><path d="M321.1 453.9L467.6 484.9L316.1 340.6Z" fill="#2b294f" stroke="#2b294f"></path><path d="M1055.3 1080L1220.8 1080L1202.8 928.7Z" fill="#232346" stroke="#232346"></path><path d="M358.1 587.1L393.1 803.4L524.6 724.4Z" fill="#232346" stroke="#232346"></path><path d="M561.6 920.7L558.6 1080L701.2 955.7Z" fill="#302c54" stroke="#302c54"></path><path d="M1588.9 884.7L1570.9 731.4L1381.4 783.4Z" fill="#3d3563" stroke="#3d3563"></path><path d="M1755.5 470.9L1708.5 361.6L1550.9 429.9Z" fill="#3d3563" stroke="#3d3563"></path><path d="M316.1 340.6L467.6 484.9L487.6 306.6Z" fill="#38325e" stroke="#38325e"></path><path d="M125.5 808.4L324.1 907.7L393.1 803.4Z" fill="#463c6d" stroke="#463c6d"></path><path d="M1442.4 211.3L1345.4 0L1180.8 150.3Z" fill="#1f2041" stroke="#1f2041"></path><path d="M1523.9 0L1345.4 0L1442.4 211.3Z" fill="#1f2041" stroke="#1f2041"></path><path d="M348.1 175.3L316.1 340.6L487.6 306.6Z" fill="#423968" stroke="#423968"></path><path d="M348.1 175.3L487.6 306.6L514.6 201.3Z" fill="#342f59" stroke="#342f59"></path><path d="M406.1 1080L558.6 1080L561.6 920.7Z" fill="#4b3f72" stroke="#4b3f72"></path><path d="M1220.8 1080L1372.4 1080L1375.4 951.7Z" fill="#27264b" stroke="#27264b"></path><path d="M1375.4 951.7L1588.9 884.7L1381.4 783.4Z" fill="#232346" stroke="#232346"></path><path d="M487.6 0L348.1 175.3L514.6 201.3Z" fill="#423968" stroke="#423968"></path><path d="M746.2 0L487.6 0L700.2 133.3Z" fill="#3d3563" stroke="#3d3563"></path><path d="M1532.9 364.6L1559.9 126.3L1442.4 211.3Z" fill="#463c6d" stroke="#463c6d"></path><path d="M1708.5 361.6L1559.9 126.3L1532.9 364.6Z" fill="#342f59" stroke="#342f59"></path><path d="M1708.5 361.6L1532.9 364.6L1550.9 429.9Z" fill="#27264b" stroke="#27264b"></path><path d="M1585.9 1080L1588.9 884.7L1375.4 951.7Z" fill="#1f2041" stroke="#1f2041"></path><path d="M1755.5 470.9L1550.9 429.9L1538.9 604.1Z" fill="#27264b" stroke="#27264b"></path><path d="M221.5 637.1L393.1 803.4L358.1 587.1Z" fill="#27264b" stroke="#27264b"></path><path d="M393.1 803.4L324.1 907.7L561.6 920.7Z" fill="#423968" stroke="#423968"></path><path d="M221.5 637.1L358.1 587.1L321.1 453.9Z" fill="#1f2041" stroke="#1f2041"></path><path d="M138.5 457.9L221.5 637.1L321.1 453.9Z" fill="#38325e" stroke="#38325e"></path><path d="M225.5 310.6L321.1 453.9L316.1 340.6Z" fill="#423968" stroke="#423968"></path><path d="M1755.5 470.9L1538.9 604.1L1761.5 605.1Z" fill="#302c54" stroke="#302c54"></path><path d="M136.5 171.3L225.5 310.6L348.1 175.3Z" fill="#463c6d" stroke="#463c6d"></path><path d="M348.1 175.3L225.5 310.6L316.1 340.6Z" fill="#4b3f72" stroke="#4b3f72"></path><path d="M1726.5 0L1523.9 0L1559.9 126.3Z" fill="#342f59" stroke="#342f59"></path><path d="M1559.9 126.3L1523.9 0L1442.4 211.3Z" fill="#232346" stroke="#232346"></path><path d="M487.6 0L390.1 0L348.1 175.3Z" fill="#3d3563" stroke="#3d3563"></path><path d="M324.1 907.7L406.1 1080L561.6 920.7Z" fill="#27264b" stroke="#27264b"></path><path d="M1761.5 605.1L1538.9 604.1L1570.9 731.4Z" fill="#463c6d" stroke="#463c6d"></path><path d="M1801.5 822.4L1761.5 605.1L1570.9 731.4Z" fill="#4b3f72" stroke="#4b3f72"></path><path d="M0 260.6L138.5 457.9L225.5 310.6Z" fill="#3d3563" stroke="#3d3563"></path><path d="M225.5 310.6L138.5 457.9L321.1 453.9Z" fill="#38325e" stroke="#38325e"></path><path d="M221.5 637.1L125.5 808.4L393.1 803.4Z" fill="#27264b" stroke="#27264b"></path><path d="M1372.4 1080L1585.9 1080L1375.4 951.7Z" fill="#342f59" stroke="#342f59"></path><path d="M1588.9 884.7L1801.5 822.4L1570.9 731.4Z" fill="#1f2041" stroke="#1f2041"></path><path d="M1920 187.3L1706.5 143.3L1708.5 361.6Z" fill="#27264b" stroke="#27264b"></path><path d="M1708.5 361.6L1706.5 143.3L1559.9 126.3Z" fill="#3d3563" stroke="#3d3563"></path><path d="M0 623.1L125.5 808.4L221.5 637.1Z" fill="#1f2041" stroke="#1f2041"></path><path d="M324.1 907.7L223.5 1080L406.1 1080Z" fill="#342f59" stroke="#342f59"></path><path d="M125.5 808.4L198.5 976.7L324.1 907.7Z" fill="#2b294f" stroke="#2b294f"></path><path d="M1784.5 902.7L1801.5 822.4L1588.9 884.7Z" fill="#3d3563" stroke="#3d3563"></path><path d="M1761.5 605.1L1920 648.1L1755.5 470.9Z" fill="#4b3f72" stroke="#4b3f72"></path><path d="M201.5 0L136.5 171.3L348.1 175.3Z" fill="#2b294f" stroke="#2b294f"></path><path d="M138.5 457.9L0 623.1L221.5 637.1Z" fill="#3d3563" stroke="#3d3563"></path><path d="M1740.5 1080L1784.5 902.7L1588.9 884.7Z" fill="#27264b" stroke="#27264b"></path><path d="M198.5 976.7L223.5 1080L324.1 907.7Z" fill="#3d3563" stroke="#3d3563"></path><path d="M0 1080L223.5 1080L198.5 976.7Z" fill="#3d3563" stroke="#3d3563"></path><path d="M390.1 0L201.5 0L348.1 175.3Z" fill="#27264b" stroke="#27264b"></path><path d="M1706.5 143.3L1726.5 0L1559.9 126.3Z" fill="#3d3563" stroke="#3d3563"></path><path d="M1920 0L1726.5 0L1706.5 143.3Z" fill="#423968" stroke="#423968"></path><path d="M1920 407.9L1708.5 361.6L1755.5 470.9Z" fill="#423968" stroke="#423968"></path><path d="M1585.9 1080L1740.5 1080L1588.9 884.7Z" fill="#2b294f" stroke="#2b294f"></path><path d="M1920 747.4L1761.5 605.1L1801.5 822.4Z" fill="#3d3563" stroke="#3d3563"></path><path d="M1920 747.4L1920 648.1L1761.5 605.1Z" fill="#27264b" stroke="#27264b"></path><path d="M1920 747.4L1801.5 822.4L1920 924.7Z" fill="#2b294f" stroke="#2b294f"></path><path d="M1920 648.1L1920 407.9L1755.5 470.9Z" fill="#38325e" stroke="#38325e"></path><path d="M0 260.6L225.5 310.6L136.5 171.3Z" fill="#1f2041" stroke="#1f2041"></path><path d="M0 260.6L0 487.9L138.5 457.9Z" fill="#2b294f" stroke="#2b294f"></path><path d="M125.5 808.4L0 965.7L198.5 976.7Z" fill="#2b294f" stroke="#2b294f"></path><path d="M0 487.9L0 623.1L138.5 457.9Z" fill="#463c6d" stroke="#463c6d"></path><path d="M1920 407.9L1920 325.6L1708.5 361.6Z" fill="#302c54" stroke="#302c54"></path><path d="M1920 924.7L1801.5 822.4L1784.5 902.7Z" fill="#232346" stroke="#232346"></path><path d="M0 199.3L0 260.6L136.5 171.3Z" fill="#232346" stroke="#232346"></path><path d="M0 623.1L0 796.4L125.5 808.4Z" fill="#38325e" stroke="#38325e"></path><path d="M1920 325.6L1920 187.3L1708.5 361.6Z" fill="#302c54" stroke="#302c54"></path><path d="M0 0L0 199.3L136.5 171.3Z" fill="#302c54" stroke="#302c54"></path><path d="M1920 1080L1920 924.7L1784.5 902.7Z" fill="#2b294f" stroke="#2b294f"></path><path d="M0 796.4L0 965.7L125.5 808.4Z" fill="#232346" stroke="#232346"></path><path d="M1920 187.3L1920 0L1706.5 143.3Z" fill="#38325e" stroke="#38325e"></path><path d="M201.5 0L0 0L136.5 171.3Z" fill="#27264b" stroke="#27264b"></path><path d="M1740.5 1080L1920 1080L1784.5 902.7Z" fill="#1f2041" stroke="#1f2041"></path><path d="M0 965.7L0 1080L198.5 976.7Z" fill="#3d3563" stroke="#3d3563"></path></g></svg>